<svg xmlns="http://www.w3.org/2000/svg" width="292" height="28" viewBox="0 0 292 28" fill="none">
  <path d="M1.18565 23.0001H11.5537V22.4561L8.22565 22.0401C7.26565 21.9121 6.56165 21.1761 6.56165 20.1841V4.85612L19.7457 23.0001H21.1857V3.35212C21.1857 2.39212 21.8577 1.59212 22.8177 1.46412L25.2497 1.14412V0.600117H14.8817V1.14412L18.2097 1.56012C19.1697 1.68812 19.8737 2.42412 19.8737 3.41612V17.6881L10.3057 4.24812C7.64966 0.536118 5.02565 0.600117 0.545654 0.600117V1.14412C2.49765 1.43212 4.41765 2.16812 5.24965 3.64012V20.2481C5.24965 21.2081 4.57765 22.0081 3.61765 22.1361L1.18565 22.4561V23.0001Z" fill="white"/>
  <path d="M43.2887 23.5121C50.2007 23.5121 55.2247 18.7761 55.2247 11.8001C55.2247 4.82412 50.2007 0.120117 43.2887 0.120117C36.3767 0.120117 31.3207 4.82412 31.3207 11.8001C31.3207 18.7761 36.3767 23.5121 43.2887 23.5121ZM43.3207 22.3921C37.5607 22.3921 35.2247 17.3041 35.2247 11.0641C35.2247 5.24012 37.6887 1.24012 43.2567 1.24012C48.8887 1.24012 51.2887 6.23212 51.2887 12.2801C51.2887 18.2961 49.1127 22.3921 43.3207 22.3921Z" fill="white"/>
  <path d="M72.2754 12.1841H72.5314C75.8274 21.3041 81.7154 25.4001 84.9474 27.4161C80.4034 21.2081 78.2594 17.1121 76.2114 11.8961C80.0834 11.1921 82.0994 9.36812 82.0994 6.23212C82.0994 2.20012 78.5794 0.600117 71.9554 0.600117H61.9394V1.14412L63.9874 1.40012C64.9474 1.52812 65.6514 2.26412 65.6514 3.25612V20.3441C65.6514 21.3361 64.9474 22.0721 63.9874 22.2001L61.9394 22.4561V23.0001H73.0754V22.4561L71.0274 22.2001C70.0674 22.0721 69.3634 21.3361 69.3634 20.3441V12.1841H72.2754ZM69.3634 1.72012H72.7554C76.9794 1.72012 78.7074 3.22412 78.7074 6.39212C78.7074 9.56012 76.7554 11.0641 72.2434 11.0641H69.3634V1.72012Z" fill="white"/>
  <path d="M91.0269 23.0001H101.971C109.907 23.0001 114.995 18.9681 114.995 11.8641C114.995 4.40812 109.907 0.600117 101.971 0.600117H91.0269V1.14412L93.0749 1.40012C94.0349 1.52812 94.7389 2.26412 94.7389 3.25612V20.3441C94.7389 21.3361 94.0349 22.0721 93.0749 22.2001L91.0269 22.4561V23.0001ZM100.115 21.8801C99.1549 21.8801 98.4509 21.3361 98.4509 20.3441V1.72012H101.459C106.195 1.72012 111.123 3.73612 111.123 11.8641C111.123 19.3841 106.771 21.8801 101.459 21.8801H100.115Z" fill="white"/>
  <path d="M122.021 23.0001H133.157V22.4561L131.109 22.2001C130.149 22.0721 129.445 21.3361 129.445 20.3441V3.25612C129.445 2.26412 130.149 1.52812 131.109 1.40012L133.157 1.14412V0.600117H122.021V1.14412L124.069 1.40012C125.029 1.52812 125.733 2.26412 125.733 3.25612V20.3441C125.733 21.3361 125.029 22.0721 124.069 22.2001L122.021 22.4561V23.0001Z" fill="white"/>
  <path d="M152.154 23.4801C155.866 23.4801 159.834 22.0721 162.426 19.6401V17.7201C159.93 20.0561 156.506 21.2401 153.114 21.2401C148.218 21.2401 144.218 17.8161 144.218 11.8001C144.218 5.49612 146.97 1.24012 152.154 1.24012C156.826 1.24012 159.29 5.17612 158.714 12.0881H159.578L161.498 3.54412C159.674 1.46412 154.714 0.120117 152.154 0.120117C144.922 0.120117 140.186 4.82412 140.186 11.8001C140.186 18.8081 144.986 23.4801 152.154 23.4801Z" fill="white"/>
  <path d="M193.9 12.1841H194.156C197.452 21.3041 203.34 25.4001 206.572 27.4161C202.028 21.2081 199.884 17.1121 197.836 11.8961C201.708 11.1921 203.724 9.36812 203.724 6.23212C203.724 2.20012 200.204 0.600117 193.58 0.600117H183.564V1.14412L185.612 1.40012C186.572 1.52812 187.276 2.26412 187.276 3.25612V20.3441C187.276 21.3361 186.572 22.0721 185.612 22.2001L183.564 22.4561V23.0001H194.7V22.4561L192.652 22.2001C191.692 22.0721 190.988 21.3361 190.988 20.3441V12.1841H193.9ZM190.988 1.72012H194.38C198.604 1.72012 200.332 3.22412 200.332 6.39212C200.332 9.56012 198.38 11.0641 193.868 11.0641H190.988V1.72012Z" fill="white"/>
  <path d="M224.276 23.5121C231.188 23.5121 236.212 18.7761 236.212 11.8001C236.212 4.82412 231.188 0.120117 224.276 0.120117C217.364 0.120117 212.308 4.82412 212.308 11.8001C212.308 18.7761 217.364 23.5121 224.276 23.5121ZM224.308 22.3921C218.548 22.3921 216.212 17.3041 216.212 11.0641C216.212 5.24012 218.676 1.24012 224.244 1.24012C229.876 1.24012 232.276 6.23212 232.276 12.2801C232.276 18.2961 230.1 22.3921 224.308 22.3921Z" fill="white"/>
  <path d="M253.568 23.4801C258.368 23.4801 261.76 21.0481 261.76 17.5281C261.76 8.69612 248.736 9.59212 248.736 5.17612C248.736 2.90412 250.816 1.24012 254.24 1.24012C257.856 1.24012 259.552 3.64012 259.904 8.92012H260.768L261.088 1.65612C259.2 0.824118 256.8 0.120117 254.24 0.120117C249.248 0.120117 246.144 2.36012 246.144 5.49612C246.144 14.1041 259.2 12.8881 259.2 18.0081C259.2 20.5681 256.832 22.3601 253.888 22.3601C250.08 22.3601 248.16 19.7361 247.456 13.8161H246.592L245.952 21.4001C248.16 22.6161 250.208 23.4801 253.568 23.4801Z" fill="white"/>
  <path d="M269.764 23.0001H290.5L291.46 15.4481H290.916C288.964 20.5041 287.268 21.8801 284.42 21.8801H278.852C277.892 21.8801 277.188 21.3361 277.188 20.3441V12.1841H284.58C285.444 12.1841 286.308 12.7921 286.372 13.6241L286.724 17.3681H287.268V6.20012H286.724L286.372 9.62412C286.276 10.4881 285.444 11.0641 284.58 11.0641H277.188V1.72012H283.78C286.148 1.72012 288.548 2.84012 289.828 8.18412H290.372L289.732 0.600117H269.764V1.14412L271.812 1.40012C272.772 1.52812 273.476 2.26412 273.476 3.25612V20.3441C273.476 21.3361 272.772 22.0721 271.812 22.2001L269.764 22.4561V23.0001Z" fill="white"/>
</svg>