<svg xmlns="http://www.w3.org/2000/svg" width="396" height="39" viewBox="0 0 396 39" fill="none">
<path d="M0.874141 32H14.9981V31.252L10.4221 30.68C9.10214 30.504 8.13414 29.492 8.13414 28.128V7.05204L26.3061 32H28.0661V4.98404C28.0661 3.66404 28.9901 2.56404 30.3101 2.38804L33.6541 1.94804V1.20004H19.5741V1.94804L24.1501 2.52004C25.4701 2.69604 26.4381 3.70804 26.4381 5.07204V25.4L12.1821 5.55604C9.23414 1.42004 6.15414 1.20004 -0.00585938 1.20004V1.94804C2.67814 2.34404 5.31814 3.35604 6.46214 5.38004V28.216C6.46214 29.536 5.53814 30.636 4.21814 30.812L0.874141 31.252V32Z" fill="black"/>
<path d="M58.4691 32.704C67.7971 32.704 74.7051 26.192 74.7051 16.6C74.7051 7.00804 67.7971 0.540039 58.4691 0.540039C49.1411 0.540039 42.1891 7.00804 42.1891 16.6C42.1891 26.192 49.1411 32.704 58.4691 32.704ZM58.5131 31.164C50.4171 31.164 46.8531 24.168 46.8531 15.588C46.8531 7.58004 50.5931 2.08004 58.4251 2.08004C66.3451 2.08004 69.9971 8.94404 69.9971 17.26C69.9971 25.532 66.6531 31.164 58.5131 31.164Z" fill="black"/>
<path d="M97.7539 17.128H98.5459C103.078 29.668 110.822 35.3 115.266 38.072C109.018 29.536 105.806 23.904 102.946 16.732C108.314 15.808 111.262 13.3 111.262 8.94404C111.262 3.40004 106.246 1.20004 97.3139 1.20004H84.1139V1.94804L86.9299 2.30004C88.2499 2.47604 89.2179 3.48804 89.2179 4.85204V28.348C89.2179 29.712 88.2499 30.724 86.9299 30.9L84.1139 31.252V32H98.6779V31.252L95.8619 30.9C94.5419 30.724 93.5739 29.712 93.5739 28.348V17.128H97.7539ZM93.5739 2.74004H98.4139C104.398 2.74004 107.082 4.80804 107.082 9.16404C107.082 13.52 104.09 15.588 97.7099 15.588H93.5739V2.74004Z" fill="black"/>
<path d="M123.293 32H137.417C148.329 32 155.325 26.456 155.325 16.688C155.325 6.43604 148.329 1.20004 137.417 1.20004H123.293V1.94804L126.109 2.30004C127.429 2.47604 128.397 3.48804 128.397 4.85204V28.348C128.397 29.712 127.429 30.724 126.109 30.9L123.293 31.252V32ZM135.041 30.46C133.721 30.46 132.753 29.712 132.753 28.348V2.74004H137.065C143.753 2.74004 150.661 5.51204 150.661 16.688C150.661 27.028 144.545 30.46 137.065 30.46H135.041Z" fill="black"/>
<path d="M165.007 32H179.571V31.252L176.755 30.9C175.435 30.724 174.467 29.712 174.467 28.348V4.85204C174.467 3.48804 175.435 2.47604 176.755 2.30004L179.571 1.94804V1.20004H165.007V1.94804L167.823 2.30004C169.143 2.47604 170.111 3.48804 170.111 4.85204V28.348C170.111 29.712 169.143 30.724 167.823 30.9L165.007 31.252V32Z" fill="black"/>
<path d="M205.702 32.66C210.806 32.66 216.262 30.724 219.826 27.38V25.048C216.394 28.26 211.686 29.888 207.022 29.888C200.114 29.888 194.438 24.872 194.438 16.6C194.438 7.93204 198.398 2.08004 205.702 2.08004C213.006 2.08004 215.822 7.49204 214.854 16.996H215.91L218.55 5.24804C216.042 2.38804 209.222 0.540039 205.702 0.540039C196.066 0.540039 189.554 7.00804 189.554 16.6C189.554 26.236 196.11 32.66 205.702 32.66Z" fill="black"/>
<path d="M262.496 17.128H263.288C267.82 29.668 275.564 35.3 280.008 38.072C273.76 29.536 270.548 23.904 267.688 16.732C273.056 15.808 276.004 13.3 276.004 8.94404C276.004 3.40004 270.988 1.20004 262.056 1.20004H248.856V1.94804L251.672 2.30004C252.992 2.47604 253.96 3.48804 253.96 4.85204V28.348C253.96 29.712 252.992 30.724 251.672 30.9L248.856 31.252V32H263.42V31.252L260.604 30.9C259.284 30.724 258.316 29.712 258.316 28.348V17.128H262.496ZM258.316 2.74004H263.156C269.14 2.74004 271.824 4.80804 271.824 9.16404C271.824 13.52 268.832 15.588 262.452 15.588H258.316V2.74004Z" fill="black"/>
<path d="M304.018 32.704C313.346 32.704 320.254 26.192 320.254 16.6C320.254 7.00804 313.346 0.540039 304.018 0.540039C294.69 0.540039 287.738 7.00804 287.738 16.6C287.738 26.192 294.69 32.704 304.018 32.704ZM304.062 31.164C295.966 31.164 292.402 24.168 292.402 15.588C292.402 7.58004 296.142 2.08004 303.974 2.08004C311.894 2.08004 315.546 8.94404 315.546 17.26C315.546 25.532 312.202 31.164 304.062 31.164Z" fill="black"/>
<path d="M344.295 32.66C350.895 32.66 355.559 29.316 355.559 24.476C355.559 12.64 337.343 14.048 337.343 7.49204C337.343 4.36804 340.511 2.08004 345.219 2.08004C350.631 2.08004 352.655 4.98404 353.183 12.64H354.195L354.635 2.65204C352.039 1.50804 348.739 0.540039 345.219 0.540039C338.355 0.540039 334.087 3.62004 334.087 7.93204C334.087 19.416 352.391 17.612 352.391 25.136C352.391 28.656 348.783 31.12 344.735 31.12C339.059 31.12 336.771 28.084 335.715 19.372H334.703L333.823 29.8C336.859 31.472 339.675 32.66 344.295 32.66Z" fill="black"/>
<path d="M366.565 32H394.505L395.825 21.616H395.077C392.393 28.568 390.545 30.46 386.629 30.46H378.313C376.993 30.46 376.025 29.712 376.025 28.348V17.128H386.365C387.553 17.128 388.741 17.964 388.829 19.108L389.313 24.256H390.061V8.90004H389.313L388.829 13.608C388.697 14.796 387.553 15.588 386.365 15.588H376.025V2.74004H385.749C389.005 2.74004 391.821 4.28004 393.581 11.628H394.329L393.449 1.20004H366.565V1.94804L369.381 2.30004C370.701 2.47604 371.669 3.48804 371.669 4.85204V28.348C371.669 29.712 370.701 30.724 369.381 30.9L366.565 31.252V32Z" fill="black"/>
</svg>